<?xml version="1.0" encoding="UTF-8" standalone="no"?>
<!-- Created with Inkscape (http://www.inkscape.org/) -->

<svg
   xmlns:dc="http://purl.org/dc/elements/1.1/"
   xmlns:cc="http://creativecommons.org/ns#"
   xmlns:rdf="http://www.w3.org/1999/02/22-rdf-syntax-ns#"
   xmlns:svg="http://www.w3.org/2000/svg"
   xmlns="http://www.w3.org/2000/svg"
   xmlns:sodipodi="http://sodipodi.sourceforge.net/DTD/sodipodi-0.dtd"
   xmlns:inkscape="http://www.inkscape.org/namespaces/inkscape"
   width="197.44986mm"
   height="41.425705mm"
   viewBox="0 0 699.62548 146.78399"
   id="svg2"
   version="1.1"
   inkscape:version="0.91 r13725"
   sodipodi:docname="logo_source.svg">
  <defs
     id="defs4" />
  <sodipodi:namedview
     id="base"
     pagecolor="#ffffff"
     bordercolor="#666666"
     borderopacity="1.0"
     inkscape:pageopacity="0.0"
     inkscape:pageshadow="2"
     inkscape:zoom="0.42861328"
     inkscape:cx="212.29032"
     inkscape:cy="-9.2801699"
     inkscape:document-units="px"
     inkscape:current-layer="flowRoot3360"
     showgrid="false"
     fit-margin-top="0"
     fit-margin-left="0"
     fit-margin-right="0"
     fit-margin-bottom="0"
     inkscape:window-width="1366"
     inkscape:window-height="744"
     inkscape:window-x="0"
     inkscape:window-y="24"
     inkscape:window-maximized="1" />
  <metadata
     id="metadata7">
    <rdf:RDF>
      <cc:Work
         rdf:about="">
        <dc:format>image/svg+xml</dc:format>
        <dc:type
           rdf:resource="http://purl.org/dc/dcmitype/StillImage" />
        <dc:title></dc:title>
      </cc:Work>
    </rdf:RDF>
  </metadata>
  <g
     inkscape:label="Layer 1"
     inkscape:groupmode="layer"
     id="layer1"
     transform="translate(-145.46633,-549.60424)">
    <g
       transform="translate(0,308.26772)"
       style="font-style:normal;font-weight:normal;font-size:40px;line-height:125%;font-family:sans-serif;letter-spacing:0px;word-spacing:0px;fill:#000000;fill-opacity:1;stroke:none;stroke-width:1px;stroke-linecap:butt;stroke-linejoin:miter;stroke-opacity:1"
       id="flowRoot3360">
      <path
         d="m 170.74633,387.64052 q -13.76,-0.32 -19.52,-5.92 -5.76,-5.6 -5.76,-17.44 l 0,-99.84 14.88,-2.56 0,100 q 0,3.68 0.64,6.08 0.64,2.4 2.08,3.84 1.44,1.44 3.84,2.24 2.4,0.64 5.92,1.12 l -2.08,12.48 z"
         style="font-style:normal;font-variant:normal;font-weight:normal;font-stretch:normal;font-size:160px;font-family:Ubuntu;-inkscape-font-specification:Ubuntu;fill:#4caf50;fill-opacity:1"
         id="path3371"
         inkscape:connector-curvature="0" />
      <path
         d="m 255.77633,383.64052 q -5.12,1.28 -13.6,2.72 -8.32,1.44 -19.36,1.44 -9.6,0 -16.16,-2.72 -6.56,-2.88 -10.56,-8 -4,-5.12 -5.76,-12 -1.76,-7.04 -1.76,-15.52 l 0,-46.72 14.88,0 0,43.52 q 0,15.2 4.8,21.76 4.8,6.56 16.16,6.56 2.4,0 4.96,-0.16 2.56,-0.16 4.8,-0.32 2.24,-0.32 4,-0.48 1.92,-0.32 2.72,-0.64 l 0,-70.24 14.88,0 0,80.8 z"
         style="font-style:normal;font-variant:normal;font-weight:normal;font-stretch:normal;font-size:160px;font-family:Ubuntu;-inkscape-font-specification:Ubuntu;fill:#4caf50;fill-opacity:1"
         id="path3373"
         inkscape:connector-curvature="0" />
      <path
         d="m 281.41133,305.24052 q 5.12,-1.28 13.6,-2.72 8.48,-1.44 19.52,-1.44 9.92,0 16.48,2.88 6.56,2.72 10.4,7.84 4,4.96 5.6,12 1.6,7.04 1.6,15.52 l 0,46.72 -14.88,0 0,-43.52 q 0,-7.68 -1.12,-13.12 -0.96,-5.44 -3.36,-8.8 -2.4,-3.36 -6.4,-4.8 -4,-1.6 -9.92,-1.6 -2.4,0 -4.96,0.16 -2.56,0.16 -4.96,0.48 -2.24,0.16 -4.16,0.48 -1.76,0.32 -2.56,0.48 l 0,70.24 -14.88,0 0,-80.8 z"
         style="font-style:normal;font-variant:normal;font-weight:normal;font-stretch:normal;font-size:160px;font-family:Ubuntu;-inkscape-font-specification:Ubuntu;fill:#4caf50;fill-opacity:1"
         id="path3375"
         inkscape:connector-curvature="0" />
      <path
         d="m 409.44633,387.96052 q -10.08,0 -17.76,-3.2 -7.52,-3.2 -12.8,-8.96 -5.12,-5.76 -7.68,-13.6 -2.56,-8 -2.56,-17.6 0,-9.6 2.72,-17.6 2.88,-8 8,-13.76 5.12,-5.92 12.48,-9.12 7.52,-3.36 16.64,-3.36 5.6,0 11.2,0.96 5.6,0.96 10.72,3.04 l -3.36,12.64 q -3.36,-1.6 -7.84,-2.56 -4.32,-0.96 -9.28,-0.96 -12.48,0 -19.2,7.84 -6.56,7.84 -6.56,22.88 0,6.72 1.44,12.32 1.6,5.6 4.8,9.6 3.36,4 8.48,6.24 5.12,2.08 12.48,2.08 5.92,0 10.72,-1.12 4.8,-1.12 7.52,-2.4 l 2.08,12.48 q -1.28,0.8 -3.68,1.6 -2.4,0.64 -5.44,1.12 -3.04,0.64 -6.56,0.96 -3.36,0.48 -6.56,0.48 z"
         style="font-style:normal;font-variant:normal;font-weight:normal;font-stretch:normal;font-size:160px;font-family:Ubuntu;-inkscape-font-specification:Ubuntu;fill:#4caf50;fill-opacity:1"
         id="path3377"
         inkscape:connector-curvature="0" />
      <path
         d="m 447.66133,386.04052 0,-121.6 14.88,-2.56 0,42.56 q 4.16,-1.6 8.8,-2.4 4.8,-0.96 9.44,-0.96 9.92,0 16.48,2.88 6.56,2.72 10.4,7.84 4,4.96 5.6,12 1.6,7.04 1.6,15.52 l 0,46.72 -14.88,0 0,-43.52 q 0,-7.68 -1.12,-13.12 -0.96,-5.44 -3.36,-8.8 -2.4,-3.36 -6.4,-4.8 -4,-1.6 -9.92,-1.6 -2.4,0 -4.96,0.32 -2.56,0.32 -4.96,0.8 -2.24,0.32 -4.16,0.8 -1.76,0.48 -2.56,0.8 l 0,69.12 -14.88,0 z"
         style="font-style:normal;font-variant:normal;font-weight:normal;font-stretch:normal;font-size:160px;font-family:Ubuntu;-inkscape-font-specification:Ubuntu;fill:#4caf50;fill-opacity:1"
         id="path3379"
         inkscape:connector-curvature="0" />
      <path
         d="m 553.79133,306.52052 q 2.72,-1.76 8.16,-3.68 5.6,-1.92 12.8,-1.92 8.96,0 15.84,3.2 7.04,3.2 11.84,8.96 4.8,5.76 7.2,13.76 2.56,8 2.56,17.6 0,10.08 -3.04,18.24 -2.88,8 -8.32,13.6 -5.44,5.6 -13.12,8.64 -7.68,3.04 -17.28,3.04 -10.4,0 -18.4,-1.44 -8,-1.44 -13.12,-2.88 l 0,-119.2 14.88,-2.56 0,44.64 z m 0,66.56 q 2.24,0.64 6.24,1.28 4.16,0.48 10.24,0.48 12,0 19.2,-7.84 7.2,-8 7.2,-22.56 0,-6.4 -1.28,-12 -1.28,-5.6 -4.16,-9.6 -2.88,-4.16 -7.52,-6.4 -4.48,-2.4 -10.88,-2.4 -6.08,0 -11.2,2.08 -5.12,2.08 -7.84,4.32 l 0,52.64 z"
         style="font-style:normal;font-variant:normal;font-weight:normal;font-stretch:normal;font-size:160px;font-family:Ubuntu;-inkscape-font-specification:Ubuntu"
         id="path3381"
         inkscape:connector-curvature="0" />
      <path
         d="m 706.72633,344.44052 q 0,9.92 -2.88,17.92 -2.88,8 -8.16,13.76 -5.12,5.76 -12.32,8.96 -7.2,3.04 -15.68,3.04 -8.48,0 -15.68,-3.04 -7.2,-3.2 -12.48,-8.96 -5.12,-5.76 -8,-13.76 -2.88,-8 -2.88,-17.92 0,-9.76 2.88,-17.76 2.88,-8.16 8,-13.92 5.28,-5.76 12.48,-8.8 7.2,-3.2 15.68,-3.2 8.48,0 15.68,3.2 7.2,3.04 12.32,8.8 5.28,5.76 8.16,13.92 2.88,8 2.88,17.76 z m -15.52,0 q 0,-14.08 -6.4,-22.24 -6.24,-8.32 -17.12,-8.32 -10.88,0 -17.28,8.32 -6.24,8.16 -6.24,22.24 0,14.08 6.24,22.4 6.4,8.16 17.28,8.16 10.88,0 17.12,-8.16 6.4,-8.32 6.4,-22.4 z"
         style="font-style:normal;font-variant:normal;font-weight:normal;font-stretch:normal;font-size:160px;font-family:Ubuntu;-inkscape-font-specification:Ubuntu"
         id="path3383"
         inkscape:connector-curvature="0" />
      <path
         d="m 774.60883,386.04052 q -1.76,-3.52 -4.32,-7.84 -2.56,-4.32 -5.6,-8.8 -3.04,-4.64 -6.24,-9.12 -3.2,-4.48 -6.24,-8.48 -3.04,4 -6.24,8.64 -3.2,4.48 -6.24,9.12 -2.88,4.48 -5.44,8.8 -2.56,4.32 -4.32,7.68 l -15.36,0 q 5.6,-10.88 13.28,-22.08 7.84,-11.36 15.52,-21.6 l -27.52,-39.52 16.8,0 19.84,29.12 20,-29.12 15.84,0 -26.88,38.56 q 7.68,10.4 15.68,22.08 8.16,11.52 13.76,22.56 l -16.32,0 z"
         style="font-style:normal;font-variant:normal;font-weight:normal;font-stretch:normal;font-size:160px;font-family:Ubuntu;-inkscape-font-specification:Ubuntu"
         id="path3385"
         inkscape:connector-curvature="0" />
      <path
         d="m 821.37983,277.73652 q -2.808,5.616 -5.304,11.648 -2.392,5.928 -4.472,11.752 -1.976,5.72 -3.536,11.128 -1.56,5.304 -2.6,9.776 l -9.88,0 q 1.456,-6.032 3.744,-12.896 2.288,-6.864 5.096,-13.936 2.912,-7.176 6.136,-14.248 3.224,-7.176 6.552,-13.624 -1.872,-4.368 -3.328,-7.696 -1.456,-3.432 -3.016,-5.72 -1.56,-2.288 -3.432,-3.432 -1.872,-1.144 -4.472,-1.144 -1.456,0 -2.6,0.208 -1.04,0.208 -1.56,0.416 l -1.352,-7.8 q 0.52,-0.208 2.392,-0.52 1.976,-0.312 4.472,-0.312 3.536,0 6.24,1.04 2.808,1.04 4.888,2.912 2.08,1.872 3.64,4.472 1.664,2.496 3.016,5.616 7.696,17.992 13.52,35.36 5.824,17.368 9.568,31.304 l -10.088,0 q -2.704,-9.776 -6.136,-21.216 -3.328,-11.544 -7.488,-23.088 z"
         style="font-size:64.99999762%;baseline-shift:super"
         id="path3387"
         inkscape:connector-curvature="0" />
    </g>
  </g>
</svg>
