<?xml version="1.0" encoding="UTF-8" standalone="no"?>
<!-- Created with Inkscape (http://www.inkscape.org/) -->

<svg
   xmlns:dc="http://purl.org/dc/elements/1.1/"
   xmlns:cc="http://creativecommons.org/ns#"
   xmlns:rdf="http://www.w3.org/1999/02/22-rdf-syntax-ns#"
   xmlns:svg="http://www.w3.org/2000/svg"
   xmlns="http://www.w3.org/2000/svg"
   xmlns:sodipodi="http://sodipodi.sourceforge.net/DTD/sodipodi-0.dtd"
   xmlns:inkscape="http://www.inkscape.org/namespaces/inkscape"
   width="84.666664mm"
   height="84.666664mm"
   viewBox="0 0 299.99999 299.99998"
   id="svg2"
   version="1.1"
   inkscape:version="0.91 r13725"
   sodipodi:docname="drawingX.svg"
   inkscape:export-filename="/home/lynx/Temp/ppp.png"
   inkscape:export-xdpi="9.6000004"
   inkscape:export-ydpi="9.6000004">
  <defs
     id="defs4" />
  <sodipodi:namedview
     id="base"
     pagecolor="#ffffff"
     bordercolor="#666666"
     borderopacity="1.0"
     inkscape:pageopacity="0.0"
     inkscape:pageshadow="2"
     inkscape:zoom="1.2862538"
     inkscape:cx="269.34057"
     inkscape:cy="163.44158"
     inkscape:document-units="px"
     inkscape:current-layer="layer1"
     showgrid="false"
     inkscape:window-width="1366"
     inkscape:window-height="744"
     inkscape:window-x="0"
     inkscape:window-y="24"
     inkscape:window-maximized="1"
     fit-margin-top="0"
     fit-margin-left="0"
     fit-margin-right="0"
     fit-margin-bottom="0" />
  <metadata
     id="metadata7">
    <rdf:RDF>
      <cc:Work
         rdf:about="">
        <dc:format>image/svg+xml</dc:format>
        <dc:type
           rdf:resource="http://purl.org/dc/dcmitype/StillImage" />
        <dc:title></dc:title>
      </cc:Work>
    </rdf:RDF>
  </metadata>
  <g
     inkscape:label="Layer 1"
     inkscape:groupmode="layer"
     id="layer1"
     transform="translate(-400,-502.36223)">
    <rect
       style="fill:#4caf50;fill-opacity:1"
       id="rect3342"
       width="300"
       height="300"
       x="400"
       y="502.36221"
       ry="59.999996"
       rx="59.999996" />
    <path
       style="fill:#ffffff"
       d="m 540.27792,804.10634 c 4.7748,-34.8532 6.87394,-56.69531 7.52224,-78.27111 0.51545,-17.15439 -0.70139,-26.45785 -5.17832,-39.59136 -2.51002,-7.36341 -5.01279,-13.2332 -9.24202,-21.67555 -2.99497,-5.97855 -3.83392,-7.2647 -4.5562,-6.985 -2.79177,1.08104 -11.89977,2.89717 -17.18287,3.42624 -6.68419,0.66938 -13.61393,0.18832 -19.9077,-1.38204 -4.42562,-1.10422 -12.30191,-4.81442 -16.33224,-7.69343 -7.08918,-5.06407 -15.2534,-15.14769 -20.18566,-24.93129 -8.17685,-16.21957 -13.90952,-40.28152 -14.89716,-62.52842 L 440,557.31147 l 4.24281,0 c 5.85213,0 18.74121,1.3855 27.17361,2.92099 35.51302,6.46671 59.09219,20.19985 68.77517,40.05648 3.59944,7.38124 4.77605,12.3938 5.07472,21.61896 0.2636,8.14189 -0.15756,12.02295 -2.26884,20.90782 l -1.31647,5.5401 2.02285,3.31586 c 7.11774,11.66728 12.96264,25.27749 15.25564,35.52367 l 0.6766,3.02338 1.3374,-1.72697 c 2.42942,-3.13704 5.47137,-6.28029 8.63225,-8.91971 2.7536,-2.29932 3.30936,-3.09867 4.75602,-6.84065 4.00214,-10.35197 9.12665,-18.56034 15.15984,-24.28286 7.79015,-7.38898 14.85724,-10.35226 25.67399,-10.76524 7.14053,-0.27263 13.0051,0.62932 21.13171,3.24998 5.26471,1.69776 17.28282,7.51923 23.60153,11.43238 8.14777,5.04588 19.66208,13.87083 27.3542,20.96515 2.68517,2.47649 2.99908,2.9653 2.54471,3.96252 -0.87738,1.92566 -12.40518,13.60838 -17.47685,17.71175 -11.65106,9.42656 -23.26686,15.2962 -35.50468,17.94103 -6.26098,1.35313 -17.86368,1.22003 -23.84242,-0.27349 -11.84385,-2.95866 -22.72804,-9.10647 -32.24627,-18.21396 l -3.4422,-3.29365 -1.92252,2.34617 c -4.19995,5.12551 -7.64649,12.04622 -9.35229,18.77964 -2.86031,11.2907 -2.50677,38.63702 0.99336,76.83852 0.72191,7.8792 1.45179,15.20491 1.62195,16.27934 l 0.30936,1.95353 -14.56665,0 -14.56665,0 0.44604,-3.25587 z"
       id="path3604"
       inkscape:connector-curvature="0" />
  </g>
</svg>
